<svg width="14" height="14" viewBox="0 0 14 14" fill="none" xmlns="http://www.w3.org/2000/svg">
<g clip-path="url(#clip0_1425_3709)">
<path d="M13.9635 5.37048C13.8719 5.08699 13.6204 4.88565 13.3229 4.85884L9.28216 4.49193L7.68432 0.752041C7.56651 0.477956 7.29819 0.300537 7.00007 0.300537C6.70195 0.300537 6.43364 0.477956 6.31582 0.752682L4.71798 4.49193L0.67656 4.85884C0.379616 4.88629 0.128816 5.08699 0.0366355 5.37048C-0.0555452 5.65396 0.0295858 5.9649 0.254216 6.1609L3.30857 8.83959L2.40791 12.807C2.34201 13.0987 2.45523 13.4002 2.69727 13.5752C2.82737 13.6692 2.97958 13.717 3.13307 13.717C3.26542 13.717 3.39669 13.6814 3.51451 13.6109L7.00007 11.5277L10.4844 13.6109C10.7393 13.7643 11.0607 13.7503 11.3022 13.5752C11.5444 13.3997 11.6575 13.0981 11.5916 12.807L10.6909 8.83959L13.7453 6.16144C13.9699 5.9649 14.0557 5.6545 13.9635 5.37048Z" fill="#FDC53C"/>
</g>
<defs>
<clipPath id="clip0_1425_3709">
<rect width="14" height="14" fill="white"/>
</clipPath>
</defs>
</svg>
