<svg width="1126" height="500" viewBox="0 0 1126 500" fill="none" xmlns="http://www.w3.org/2000/svg">
<rect width="1126" height="500" fill="#1E1E1E"/>
<rect width="1126" height="500" fill="#D2E5D0"/>
<path d="M85 444C195.4 334 251.333 398.167 265.5 444L305.5 315" stroke="#008800"/>
<path d="M85 379C195.4 269 251.333 333.167 265.5 379L305.5 250" stroke="#008800"/>
<path d="M85 410C195.4 300 251.333 364.167 265.5 410L305.5 281" stroke="#008800"/>
<path d="M869 421.5C870.322 423.066 932.212 387.096 946.22 349.5C953.283 330.546 948.175 311.179 917 296" stroke="black"/>
<path d="M949 421.5C950.322 423.066 1012.21 387.096 1026.22 349.5C1033.28 330.546 1028.17 311.179 997 296" stroke="black"/>
<path d="M909 421.5C910.322 423.066 972.212 387.096 986.22 349.5C993.283 330.546 988.175 311.179 957 296" stroke="black"/>
</svg>
