<svg width="126" height="126" viewBox="0 0 86 86" fill="none" xmlns="http://www.w3.org/2000/svg">
<rect x="0.304932" y="0.707031" width="85" height="85" rx="15" fill="#ddd"/>
<path d="M49.5801 44.3131C52.3176 42.2377 54.091 38.94 54.091 35.2326C54.091 28.9682 49.0281 23.8716 42.8047 23.8716C36.5818 23.8716 31.5189 28.9682 31.5189 35.2326C31.5189 38.94 33.2919 42.2377 36.0293 44.3131C28.7001 47.0825 23.4694 54.2089 23.4694 62.5428H26.9616C26.9616 53.7484 34.069 46.5941 42.8052 46.5941C51.5409 46.5941 58.6483 53.7484 58.6483 62.5428H62.1406C62.1401 54.2089 56.9099 47.0825 49.5801 44.3131ZM35.0112 35.2326C35.0112 30.9064 38.5071 27.3871 42.8047 27.3871C47.1023 27.3871 50.5983 30.9064 50.5983 35.2326C50.5983 39.5589 47.1023 43.0786 42.8047 43.0786C38.5071 43.0786 35.0112 39.5589 35.0112 35.2326Z" fill="#4C59B5"/>
</svg>
